<?xml version="1.0" encoding="UTF-8"?>
<svg width="44px" height="34px" viewBox="0 0 44 34" version="1.1" xmlns="http://www.w3.org/2000/svg" xmlns:xlink="http://www.w3.org/1999/xlink">
    <!-- Generator: Sketch 40 (33762) - http://www.bohemiancoding.com/sketch -->
    <title>small logo beta 2</title>
    <desc>Created with Sketch.</desc>
    <defs></defs>
    <g id="Page-1" stroke="none" stroke-width="1" fill="none" fill-rule="evenodd">
        <g id="Artboard" transform="translate(-330.000000, -74.000000)">
            <g id="small-logo-beta-2" transform="translate(330.000000, 74.000000)">
                <g id="Group">
                    <path d="M28.4550362,33.3492784 L5.23791622,33.3492784 C2.36838455,33.3492784 0.0205859011,31.0235703 0.0205859011,28.1810382 L0.0205859011,5.18236936 C0.0205859011,2.33983725 2.36838455,0.0141291705 5.23791622,0.0141291705 L28.4550362,0.0141291705 C31.3245678,0.0141291705 33.6723665,2.33983725 33.6723665,5.18236936 L33.6723665,28.1810382 C33.6723665,31.0235703 31.3245678,33.3492784 28.4550362,33.3492784 L28.4550362,33.3492784 L28.4550362,33.3492784 Z" id="XMLID_125_" fill="#0D253E"></path>
                    <path d="M9.04273064,12.4285825 L25.2408922,12.4285825 C26.3207696,12.4285825 27.1846715,11.572809 27.1846715,10.5030922 C27.1846715,9.43337542 26.3207696,8.57760197 25.2408922,8.57760197 L9.04273064,8.57760197 C7.9628532,8.57760197 7.09895125,9.43337542 7.09895125,10.5030922 C7.04495738,11.5193232 7.9628532,12.4285825 9.04273064,12.4285825 L9.04273064,12.4285825 L9.04273064,12.4285825 Z" id="XMLID_163_" fill="#FFDA42"></path>
                    <path d="M25.1868983,15.1563604 L18.0597072,15.1563604 C16.9798298,15.1563604 16.1159278,16.0121338 16.1159278,17.0818506 C16.1159278,18.1515674 16.9798298,19.0073409 18.0597072,19.0073409 L25.1868983,19.0073409 C26.2667757,19.0073409 27.1306777,18.1515674 27.1306777,17.0818506 C27.1846715,16.0656196 26.2667757,15.1563604 25.1868983,15.1563604 L25.1868983,15.1563604 L25.1868983,15.1563604 Z" id="XMLID_167_" fill="#FFFFFF"></path>
                    <path d="M9.04273064,15.1563604 C7.9628532,15.1563604 7.09895125,16.0121338 7.09895125,17.0818506 C7.09895125,18.1515674 7.9628532,19.0073409 9.04273064,19.0073409 L11.850412,19.0073409 C12.9302894,19.0073409 13.7941913,18.1515674 13.7941913,17.0818506 C13.7941913,16.0121338 12.9302894,15.1563604 11.850412,15.1563604 L9.04273064,15.1563604 L9.04273064,15.1563604 L9.04273064,15.1563604 Z" id="XMLID_168_" fill="#FF6B74"></path>
                    <path d="M20.6514131,21.9490621 L9.04273064,21.9490621 C7.9628532,21.9490621 7.09895125,22.8048356 7.09895125,23.8745524 C7.09895125,24.9442692 7.9628532,25.8000426 9.04273064,25.8000426 L20.6514131,25.8000426 C21.7312905,25.8000426 22.5951924,24.9442692 22.5951924,23.8745524 C22.5951924,22.8048356 21.6772966,21.9490621 20.6514131,21.9490621 L20.6514131,21.9490621 L20.6514131,21.9490621 Z" id="XMLID_169_" fill="#6CCEF1"></path>
                </g>
                <text id="β" font-family="LucidaGrande, Lucida Grande" font-size="10" font-weight="normal" fill="#BCBCBC">
                    <tspan x="38" y="11">β</tspan>
                </text>
            </g>
        </g>
    </g>
</svg>