<?xml version="1.0" encoding="UTF-8"?>
<svg width="28px" height="27px" viewBox="0 0 28 27" version="1.1" xmlns="http://www.w3.org/2000/svg" xmlns:xlink="http://www.w3.org/1999/xlink">
    <!-- Generator: Sketch 39 (31667) - http://www.bohemiancoding.com/sketch -->
    <title>Group 13</title>
    <desc>Created with Sketch.</desc>
    <defs></defs>
    <g id="Welcome" stroke="none" stroke-width="1" fill="none" fill-rule="evenodd">
        <g id="Select-Challenge-type-On" transform="translate(-24.000000, -16.000000)">
            <g id="Group-13" transform="translate(24.000000, 16.000000)">
                <g id="Layer_1">
                    <g id="XMLID_162_" transform="translate(5.780807, 6.811625)"></g>
                    <g id="Group">
                        <path d="M23.2382795,26.4832505 L4.27763158,26.4832505 C1.93418071,26.4832505 0.0168118193,24.6363646 0.0168118193,22.3790597 L0.0168118193,4.11541096 C0.0168118193,1.85810606 1.93418071,0.0112202237 4.27763158,0.0112202237 L23.2382795,0.0112202237 C25.5817304,0.0112202237 27.4990993,1.85810606 27.4990993,4.11541096 L27.4990993,22.3790597 C27.4990993,24.6363646 25.5817304,26.4832505 23.2382795,26.4832505 L23.2382795,26.4832505 Z" id="XMLID_125_" fill="#0D253E"></path>
                        <path d="M7.38489669,9.86975668 L20.6133953,9.86975668 C21.4952952,9.86975668 22.2008151,9.19017188 22.2008151,8.34069089 C22.2008151,7.49120989 21.4952952,6.81162509 20.6133953,6.81162509 L7.38489669,6.81162509 C6.50299678,6.81162509 5.79747686,7.49120989 5.79747686,8.34069089 C5.75338186,9.14769783 6.50299678,9.86975668 7.38489669,9.86975668 L7.38489669,9.86975668 Z" id="XMLID_163_" fill="#FFDA42"></path>
                        <path d="M20.5693003,12.0359332 L14.7487609,12.0359332 C13.866861,12.0359332 13.1613411,12.715518 13.1613411,13.564999 C13.1613411,14.41448 13.866861,15.0940648 14.7487609,15.0940648 L20.5693003,15.0940648 C21.4512002,15.0940648 22.1567201,14.41448 22.1567201,13.564999 C22.2008151,12.7579921 21.4512002,12.0359332 20.5693003,12.0359332 L20.5693003,12.0359332 Z" id="XMLID_167_" fill="#FFFFFF"></path>
                        <path d="M7.38489669,12.0359332 C6.50299678,12.0359332 5.79747686,12.715518 5.79747686,13.564999 C5.79747686,14.41448 6.50299678,15.0940648 7.38489669,15.0940648 L9.67783644,15.0940648 C10.5597363,15.0940648 11.2652563,14.41448 11.2652563,13.564999 C11.2652563,12.715518 10.5597363,12.0359332 9.67783644,12.0359332 L7.38489669,12.0359332 L7.38489669,12.0359332 Z" id="XMLID_168_" fill="#FF6B74"></path>
                        <path d="M16.8653207,17.4301376 L7.38489669,17.4301376 C6.50299678,17.4301376 5.79747686,18.1097224 5.79747686,18.9592033 C5.79747686,19.8086843 6.50299678,20.4882691 7.38489669,20.4882691 L16.8653207,20.4882691 C17.7472206,20.4882691 18.4527405,19.8086843 18.4527405,18.9592033 C18.4527405,18.1097224 17.7031256,17.4301376 16.8653207,17.4301376 L16.8653207,17.4301376 Z" id="XMLID_169_" fill="#6CCEF1"></path>
                    </g>
                </g>
            </g>
        </g>
    </g>
</svg>